<svg width="512" height="512" viewBox="0 0 512 512" fill="none" xmlns="http://www.w3.org/2000/svg">
<path d="M27.8795 414.985L27.8795 357.5L27.8795 98.5C27.8795 65.5 43.5 55.9579 81.5 55.9579H118.26H393.763C435.525 55.9579 456.717 64 456.717 123V139.481C482.5 139.481 487.883 157 487.883 190V393.169C487.883 438.5 461.5 455.5 435.525 455.5C328.731 455.292 106.043 455.001 69.6413 455.5C33.24 455.998 26.6329 428.697 27.8795 414.985Z" fill="#272637"/>
<path d="M456.717 139.481C482.5 139.481 487.883 157 487.883 190C487.883 239.034 487.883 336.323 487.883 393.169C487.883 438.5 461.5 455.5 435.525 455.5C328.731 455.292 106.043 455.001 69.6413 455.5C33.24 455.998 26.6329 428.697 27.8795 414.985L27.8795 357.5C27.8795 357.5 27.8795 131.5 27.8795 98.5M456.717 139.481C430.934 139.481 434.794 139.481 415 139.481C352.17 139.481 167.375 139.481 90.5 139.481C54.5 139.481 27.8795 131.5 27.8795 98.5M456.717 139.481C456.717 136.462 456.717 132.973 456.717 123C456.717 64 435.525 55.9579 393.763 55.9579H118.26C118.26 55.9579 119.5 55.9579 81.5 55.9579C43.5 55.9579 27.8795 65.5 27.8795 98.5" stroke="#A29BEF" stroke-width="32.4121"/>
<circle cx="375.687" cy="293.439" r="34.9054" stroke="#A29BEF" stroke-width="27.4257"/>
</svg>
