<svg width="512" height="512" viewBox="0 0 512 512" fill="none" xmlns="http://www.w3.org/2000/svg">
<path d="M27.8796 414.985V360.757L25.5374 118.289C24.2829 115.182 23.7613 111.666 24.1397 107.693C27.1316 76.2778 41.1769 60.1133 47.8256 55.9579H118.26H393.763C416.202 53.6724 460.208 64.0609 456.717 123.899V145.423C481.277 153.23 488.167 166.898 487.883 175.01V393.169C487.883 450.015 452.977 458.409 435.525 455.5C328.731 455.292 106.043 455.001 69.6414 455.5C33.2401 455.998 26.633 428.697 27.8796 414.985Z" fill="#EBEAFB"/>
<path d="M25.5374 118.289C24.2829 115.182 23.7613 111.666 24.1397 107.693C27.1316 76.2778 41.1769 60.1133 47.8256 55.9579H118.26H393.763C416.202 53.6724 460.208 64.0609 456.717 123.899C456.717 133.872 456.717 142.404 456.717 145.423C445.421 141.832 430.386 139.481 410.592 139.481C347.762 139.481 178.305 139.481 101.43 139.481C77.8361 141.659 34.2026 139.747 25.5374 118.289L27.8796 360.757V414.985C26.633 428.697 33.2401 455.998 69.6414 455.5C106.043 455.001 328.731 455.292 435.525 455.5C452.977 458.409 487.883 450.015 487.883 393.169C487.883 336.323 487.883 224.044 487.883 175.01C488.167 166.898 481.277 153.23 456.717 145.423" stroke="#3A1A7B" stroke-width="32.4121"/>
<circle cx="375.687" cy="293.439" r="34.9054" stroke="#3A1A7B" stroke-width="27.4257"/>
</svg>
