<svg width="3202" height="512" viewBox="0 0 3202 512" fill="none" xmlns="http://www.w3.org/2000/svg">
<g clip-path="url(#clip0_2_39)">
<path d="M27.8794 414.985L27.8794 357.5L27.8794 98.5C27.8794 65.5 43.4999 55.9579 81.4999 55.9579H118.259H393.763C435.524 55.9579 456.717 64 456.717 123V139.481C482.5 139.481 487.883 157 487.883 190V393.169C487.883 438.5 461.5 455.5 435.524 455.5C328.731 455.292 106.043 455.001 69.6412 455.5C33.2399 455.998 26.6328 428.697 27.8794 414.985Z" fill="#EBEAFB"/>
<path d="M456.717 139.481C482.5 139.481 487.883 157 487.883 190C487.883 239.034 487.883 336.323 487.883 393.169C487.883 438.5 461.5 455.5 435.524 455.5C328.731 455.292 106.043 455.001 69.6412 455.5C33.2399 455.998 26.6328 428.697 27.8794 414.985L27.8794 357.5C27.8794 357.5 27.8794 131.5 27.8794 98.5M456.717 139.481C430.934 139.481 434.794 139.481 415 139.481C352.17 139.481 167.375 139.481 90.4999 139.481C54.4999 139.481 27.8794 131.5 27.8794 98.5M456.717 139.481C456.717 136.462 456.717 132.973 456.717 123C456.717 64 435.524 55.9579 393.763 55.9579H118.259C118.259 55.9579 119.5 55.9579 81.4999 55.9579C43.4999 55.9579 27.8794 65.5 27.8794 98.5" stroke="#3A1A7B" stroke-width="32.4121"/>
<circle cx="375.687" cy="293.439" r="34.9054" stroke="#3A1A7B" stroke-width="27.4257"/>
<path d="M763.36 426L686.08 169.68H748.96L798.88 356.4L850.24 169.68H904L955.84 356.4L1005.76 169.68H1068.64L991.36 426H928L877.12 254.16L826.72 426H763.36ZM1149.53 431.76C1122.65 431.76 1101.05 425.68 1084.73 413.52C1068.41 401.04 1060.25 383.76 1060.25 361.68C1060.25 339.6 1067.13 322.32 1080.89 309.84C1094.65 297.36 1115.61 288.4 1143.77 282.96L1228.73 266.16C1228.73 247.92 1224.57 234.32 1216.25 225.36C1207.93 216.08 1195.61 211.44 1179.29 211.44C1164.57 211.44 1152.89 214.96 1144.25 222C1135.93 228.72 1130.17 238.48 1126.97 251.28L1064.57 248.4C1069.69 221.2 1082.17 200.4 1102.01 186C1121.85 171.28 1147.61 163.92 1179.29 163.92C1215.77 163.92 1243.29 173.2 1261.85 191.76C1280.73 210 1290.17 236.24 1290.17 270.48V363.6C1290.17 370.32 1291.29 374.96 1293.53 377.52C1296.09 380.08 1299.77 381.36 1304.57 381.36H1312.73V426C1310.81 426.64 1307.61 427.12 1303.13 427.44C1298.97 427.76 1294.65 427.92 1290.17 427.92C1279.61 427.92 1270.17 426.32 1261.85 423.12C1253.53 419.6 1247.13 413.68 1242.65 405.36C1238.17 396.72 1235.93 385.04 1235.93 370.32L1241.21 374.16C1238.65 385.36 1233.05 395.44 1224.41 404.4C1216.09 413.04 1205.53 419.76 1192.73 424.56C1179.93 429.36 1165.53 431.76 1149.53 431.76ZM1162.01 387.12C1175.77 387.12 1187.61 384.4 1197.53 378.96C1207.45 373.52 1215.13 366 1220.57 356.4C1226.01 346.8 1228.73 335.44 1228.73 322.32V307.92L1162.49 321.36C1148.73 324.24 1138.81 328.56 1132.73 334.32C1126.97 339.76 1124.09 346.96 1124.09 355.92C1124.09 365.84 1127.29 373.52 1133.69 378.96C1140.41 384.4 1149.85 387.12 1162.01 387.12ZM1386.32 426C1367.76 426 1352.88 421.2 1341.68 411.6C1330.48 402 1324.88 386.64 1324.88 365.52V85.2H1386.32V359.28C1386.32 365.68 1387.92 370.48 1391.12 373.68C1394.64 376.88 1399.44 378.48 1405.52 378.48H1424.24V426H1386.32ZM1500.13 426C1481.57 426 1466.69 421.2 1455.49 411.6C1444.29 402 1438.69 386.64 1438.69 365.52V85.2H1500.13V359.28C1500.13 365.68 1501.73 370.48 1504.93 373.68C1508.45 376.88 1513.25 378.48 1519.33 378.48H1538.05V426H1500.13ZM1664.32 431.76C1638.72 431.76 1616.48 426.32 1597.6 415.44C1578.72 404.24 1564.16 388.56 1553.92 368.4C1543.68 348.24 1538.56 324.72 1538.56 297.84C1538.56 270.96 1543.68 247.6 1553.92 227.76C1564.16 207.6 1578.56 191.92 1597.12 180.72C1616 169.52 1637.92 163.92 1662.88 163.92C1687.2 163.92 1708.48 169.36 1726.72 180.24C1745.28 191.12 1759.52 206.8 1769.44 227.28C1779.36 247.76 1784.32 272.4 1784.32 301.2V315.12H1602.4C1603.68 337.52 1609.76 354.48 1620.64 366C1631.84 377.2 1646.56 382.8 1664.8 382.8C1678.56 382.8 1689.92 379.76 1698.88 373.68C1708.16 367.28 1714.56 358.48 1718.08 347.28L1780.96 351.12C1773.92 376.08 1760 395.76 1739.2 410.16C1718.72 424.56 1693.76 431.76 1664.32 431.76ZM1602.4 273.84H1720.96C1719.68 253.04 1713.76 237.68 1703.2 227.76C1692.64 217.52 1679.2 212.4 1662.88 212.4C1646.56 212.4 1632.96 217.68 1622.08 228.24C1611.52 238.8 1604.96 254 1602.4 273.84ZM1902.16 426C1876.56 426 1857.68 420.08 1845.52 408.24C1833.68 396.4 1827.76 377.84 1827.76 352.56V109.68H1889.2V346.8C1889.2 358.64 1891.76 366.96 1896.88 371.76C1902 376.24 1910 378.48 1920.88 378.48H1956.88V426H1902.16ZM1787.44 217.2V169.68H1956.88V217.2H1787.44ZM1979.94 426V358.8H2050.02V426H1979.94ZM2078.63 498V169.68H2137.67L2139.11 224.4L2132.87 221.52C2139.27 202.64 2149.67 188.4 2164.07 178.8C2178.79 168.88 2195.91 163.92 2215.43 163.92C2239.75 163.92 2259.91 170 2275.91 182.16C2292.23 194.32 2304.39 210.48 2312.39 230.64C2320.39 250.8 2324.39 273.2 2324.39 297.84C2324.39 322.48 2320.23 344.88 2311.91 365.04C2303.91 385.2 2291.75 401.36 2275.43 413.52C2259.43 425.68 2239.27 431.76 2214.95 431.76C2202.15 431.76 2190.15 429.52 2178.95 425.04C2168.07 420.56 2158.63 414.16 2150.63 405.84C2142.95 397.52 2137.51 387.76 2134.31 376.56L2140.07 371.76V498H2078.63ZM2200.55 381.84C2219.11 381.84 2233.67 374.48 2244.23 359.76C2255.11 344.72 2260.55 324.08 2260.55 297.84C2260.55 271.6 2255.11 251.12 2244.23 236.4C2233.67 221.36 2219.11 213.84 2200.55 213.84C2188.07 213.84 2177.35 217.04 2168.39 223.44C2159.43 229.52 2152.39 238.8 2147.27 251.28C2142.47 263.76 2140.07 279.28 2140.07 297.84C2140.07 316.4 2142.47 331.92 2147.27 344.4C2152.07 356.88 2158.95 366.32 2167.91 372.72C2177.19 378.8 2188.07 381.84 2200.55 381.84ZM2426.22 431.76C2399.34 431.76 2377.74 425.68 2361.42 413.52C2345.1 401.04 2336.94 383.76 2336.94 361.68C2336.94 339.6 2343.82 322.32 2357.58 309.84C2371.34 297.36 2392.3 288.4 2420.46 282.96L2505.42 266.16C2505.42 247.92 2501.26 234.32 2492.94 225.36C2484.62 216.08 2472.3 211.44 2455.98 211.44C2441.26 211.44 2429.58 214.96 2420.94 222C2412.62 228.72 2406.86 238.48 2403.66 251.28L2341.26 248.4C2346.38 221.2 2358.86 200.4 2378.7 186C2398.54 171.28 2424.3 163.92 2455.98 163.92C2492.46 163.92 2519.98 173.2 2538.54 191.76C2557.42 210 2566.86 236.24 2566.86 270.48V363.6C2566.86 370.32 2567.98 374.96 2570.22 377.52C2572.78 380.08 2576.46 381.36 2581.26 381.36H2589.42V426C2587.5 426.64 2584.3 427.12 2579.82 427.44C2575.66 427.76 2571.34 427.92 2566.86 427.92C2556.3 427.92 2546.86 426.32 2538.54 423.12C2530.22 419.6 2523.82 413.68 2519.34 405.36C2514.86 396.72 2512.62 385.04 2512.62 370.32L2517.9 374.16C2515.34 385.36 2509.74 395.44 2501.1 404.4C2492.78 413.04 2482.22 419.76 2469.42 424.56C2456.62 429.36 2442.22 431.76 2426.22 431.76ZM2438.7 387.12C2452.46 387.12 2464.3 384.4 2474.22 378.96C2484.14 373.52 2491.82 366 2497.26 356.4C2502.7 346.8 2505.42 335.44 2505.42 322.32V307.92L2439.18 321.36C2425.42 324.24 2415.5 328.56 2409.42 334.32C2403.66 339.76 2400.78 346.96 2400.78 355.92C2400.78 365.84 2403.98 373.52 2410.38 378.96C2417.1 384.4 2426.54 387.12 2438.7 387.12ZM2711.95 503.76C2689.55 503.76 2670.35 500.72 2654.35 494.64C2638.35 488.56 2625.39 479.92 2615.47 468.72C2605.87 457.84 2599.15 445.2 2595.31 430.8L2658.67 426.48C2661.87 436.08 2667.31 443.6 2674.99 449.04C2682.99 454.48 2695.31 457.2 2711.95 457.2C2730.83 457.2 2745.39 452.88 2755.63 444.24C2765.87 435.92 2770.99 422.8 2770.99 404.88V372.24C2764.91 384.72 2755.15 394.8 2741.71 402.48C2728.27 409.84 2713.23 413.52 2696.59 413.52C2675.47 413.52 2656.59 408.4 2639.95 398.16C2623.63 387.6 2610.83 373.04 2601.55 354.48C2592.27 335.6 2587.63 313.84 2587.63 289.2C2587.63 264.56 2592.11 242.96 2601.07 224.4C2610.35 205.52 2623.15 190.8 2639.47 180.24C2655.79 169.36 2674.51 163.92 2695.63 163.92C2714.19 163.92 2730.19 168.08 2743.63 176.4C2757.07 184.72 2766.83 195.76 2772.91 209.52V169.68H2832.91V403.44C2832.91 425.2 2827.79 443.6 2817.55 458.64C2807.63 473.68 2793.55 484.88 2775.31 492.24C2757.39 499.92 2736.27 503.76 2711.95 503.76ZM2710.99 365.52C2729.23 365.52 2743.79 358.8 2754.67 345.36C2765.55 331.6 2771.15 312.72 2771.47 288.72C2771.79 272.72 2769.39 259.12 2764.27 247.92C2759.47 236.4 2752.43 227.6 2743.15 221.52C2734.19 215.12 2723.47 211.92 2710.99 211.92C2692.11 211.92 2677.39 218.96 2666.83 233.04C2656.59 246.8 2651.47 265.36 2651.47 288.72C2651.47 312.08 2656.75 330.8 2667.31 344.88C2678.19 358.64 2692.75 365.52 2710.99 365.52ZM2982.36 431.76C2956.76 431.76 2934.52 426.32 2915.64 415.44C2896.76 404.24 2882.2 388.56 2871.96 368.4C2861.72 348.24 2856.6 324.72 2856.6 297.84C2856.6 270.96 2861.72 247.6 2871.96 227.76C2882.2 207.6 2896.6 191.92 2915.16 180.72C2934.04 169.52 2955.96 163.92 2980.92 163.92C3005.24 163.92 3026.52 169.36 3044.76 180.24C3063.32 191.12 3077.56 206.8 3087.48 227.28C3097.4 247.76 3102.35 272.4 3102.35 301.2V315.12H2920.44C2921.72 337.52 2927.8 354.48 2938.68 366C2949.88 377.2 2964.6 382.8 2982.84 382.8C2996.6 382.8 3007.96 379.76 3016.92 373.68C3026.2 367.28 3032.6 358.48 3036.12 347.28L3099 351.12C3091.96 376.08 3078.04 395.76 3057.24 410.16C3036.76 424.56 3011.8 431.76 2982.36 431.76ZM2920.44 273.84H3039C3037.72 253.04 3031.8 237.68 3021.24 227.76C3010.68 217.52 2997.24 212.4 2980.92 212.4C2964.6 212.4 2951 217.68 2940.12 228.24C2929.56 238.8 2923 254 2920.44 273.84Z" fill="#3A1A7B"/>
</g>
<defs>
<clipPath id="clip0_2_39">
<rect width="3202" height="512" fill="white"/>
</clipPath>
</defs>
</svg>
